<svg width="23" height="20" viewBox="0 0 23 20" fill="none" xmlns="http://www.w3.org/2000/svg">
<g clip-path="url(#clip0_11_961)">
<path d="M15.5 6.25C14.8086 6.25 14.25 5.69141 14.25 5C14.25 4.30859 14.8086 3.75 15.5 3.75H21.75C22.4414 3.75 23 4.30859 23 5V11.25C23 11.9414 22.4414 12.5 21.75 12.5C21.0586 12.5 20.5 11.9414 20.5 11.25V8.01953L13.8828 14.6328C13.3945 15.1211 12.6016 15.1211 12.1133 14.6328L8 10.5195L2.63281 15.8828C2.14453 16.3711 1.35156 16.3711 0.863281 15.8828C0.375 15.3945 0.375 14.6016 0.863281 14.1133L7.11328 7.86328C7.60156 7.375 8.39453 7.375 8.88281 7.86328L13 11.9805L18.7305 6.25H15.5Z" fill="#01A04A"/>
</g>
<defs>
<clipPath id="clip0_11_961">
<rect width="22.5" height="20" fill="white" transform="translate(0.5)"/>
</clipPath>
</defs>
</svg>
