<svg width="24" height="14" viewBox="0 0 24 14" fill="none" xmlns="http://www.w3.org/2000/svg">
<path d="M15.75 10.75C15.0586 10.75 14.5 11.3086 14.5 12C14.5 12.6914 15.0586 13.25 15.75 13.25H22C22.6914 13.25 23.25 12.6914 23.25 12V5.75C23.25 5.05859 22.6914 4.5 22 4.5C21.3086 4.5 20.75 5.05859 20.75 5.75V8.98047L14.1328 2.36719C13.6445 1.87891 12.8516 1.87891 12.3633 2.36719L8.25 6.48047L2.88281 1.11719C2.39453 0.628907 1.60156 0.628907 1.11328 1.11719C0.625 1.60547 0.625 2.39844 1.11328 2.88672L7.36328 9.13672C7.85156 9.625 8.64453 9.625 9.13281 9.13672L13.25 5.01953L18.9805 10.75H15.75Z" fill="#A00101"/>
</svg>
