<?xml version="1.0" standalone="no"?>
<!DOCTYPE svg PUBLIC "-//W3C//DTD SVG 20010904//EN"
 "http://www.w3.org/TR/2001/REC-SVG-20010904/DTD/svg10.dtd">
<svg version="1.0" xmlns="http://www.w3.org/2000/svg"
 width="375.000000pt" height="375.000000pt" viewBox="0 0 375.000000 375.000000"
 preserveAspectRatio="xMidYMid meet">
<metadata>
Created by potrace 1.14, written by Peter Selinger 2001-2017
</metadata>
<g transform="translate(0.000000,375.000000) scale(0.100000,-0.100000)"
fill="#000000" stroke="none">
<path d="M2635 3229 c-93 -28 -174 -55 -179 -60 -6 -5 12 -55 45 -126 30 -64
55 -109 57 -100 2 9 -18 61 -45 116 -43 89 -46 99 -28 99 11 0 74 16 140 35
165 47 178 50 170 37 -3 -5 -10 -10 -15 -10 -17 0 -59 -49 -47 -54 7 -3 6 -5
-3 -6 -22 -1 -148 -192 -149 -225 -1 -11 -11 -38 -22 -60 -12 -22 -34 -62 -49
-90 -50 -94 -93 -170 -110 -195 -19 -27 -194 -340 -257 -460 -115 -216 -207
-380 -211 -376 -4 4 59 126 131 256 13 25 68 126 122 225 54 99 140 259 193
355 149 274 176 326 165 315 -6 -5 -37 -57 -68 -115 -101 -184 -107 -194 -116
-179 -6 10 -9 9 -14 -6 -4 -11 -23 -53 -42 -93 -38 -76 -77 -127 -92 -118 -5
4 -7 -3 -4 -14 3 -11 1 -20 -3 -20 -17 0 -38 -62 -26 -80 8 -13 1 -33 -31 -91
l-42 -74 -5 35 c-10 56 -37 99 -71 112 -12 5 -23 -7 -43 -45 -28 -57 -33 -86
-13 -91 6 -2 21 -7 32 -12 18 -6 18 -8 3 -11 -17 -4 -24 -27 -19 -63 1 -8 2
-29 2 -47 1 -23 5 -30 15 -26 23 9 17 -9 -40 -112 l-54 -98 -11 39 c-6 21 -16
64 -23 94 -13 65 -8 91 78 394 52 182 65 256 44 256 -5 0 -7 -7 -3 -16 3 -8 1
-25 -5 -37 -6 -12 -18 -44 -27 -72 -9 -27 -21 -58 -26 -67 -5 -9 -12 -35 -15
-57 -4 -23 -10 -38 -15 -35 -5 3 -9 -1 -10 -8 -1 -26 -7 -64 -18 -123 -6 -33
-11 -78 -12 -100 l-1 -40 -9 35 c-5 19 -14 43 -19 52 -6 10 -24 68 -41 130
-39 144 -67 178 -103 126 -22 -31 -22 -59 0 -32 15 19 16 19 9 -1 -4 -11 -31
-108 -60 -215 -29 -107 -96 -357 -150 -555 -53 -198 -99 -362 -101 -364 -2 -2
-4 3 -4 12 0 10 -4 17 -9 17 -4 0 -37 80 -72 178 -34 97 -69 187 -77 200 -20
31 -49 28 -67 -8 -19 -38 -19 -49 1 -24 15 19 16 19 9 -1 -11 -33 -103 -327
-167 -537 -34 -109 -65 -198 -69 -198 -5 0 -4 12 1 26 14 37 11 54 -3 20 -13
-29 -14 -28 -71 105 -72 165 -87 184 -124 160 -14 -8 -66 -141 -58 -148 2 -2
12 20 21 49 15 46 35 84 35 66 0 -3 -58 -176 -129 -385 -71 -208 -134 -396
-141 -418 -13 -41 -30 -69 -30 -48 0 6 7 30 15 53 8 24 13 45 11 47 -2 2 -11
-18 -21 -46 -14 -42 -21 -52 -52 -62 -32 -10 -34 -12 -19 -28 14 -13 48 -17
223 -20 277 -4 437 8 412 33 -14 14 -126 26 -274 30 -136 3 -160 6 -159 19 3
28 186 567 194 567 4 0 26 -46 50 -102 86 -203 103 -225 142 -180 9 9 64 175
123 367 59 193 111 354 115 358 8 9 14 -5 95 -233 27 -74 57 -145 68 -157 19
-22 20 -28 9 -135 -6 -62 -14 -149 -17 -193 l-6 -80 21 32 c11 17 25 55 30 85
20 112 39 198 48 215 5 10 15 52 22 92 7 41 18 81 25 88 7 7 16 36 20 65 4 29
14 71 22 93 8 23 11 55 8 76 -4 20 1 85 10 145 20 143 25 164 35 164 10 0 38
-28 85 -83 32 -37 45 -34 45 13 0 20 -2 22 -11 10 -9 -12 -10 -12 -5 3 3 10 6
24 7 30 0 7 5 1 11 -13 9 -23 11 -20 23 36 17 79 33 106 57 93 19 -10 38 -66
38 -114 0 -20 3 -26 9 -17 7 12 12 12 30 1 23 -15 29 -44 7 -36 -10 4 -12 0
-9 -14 8 -31 21 -32 36 -3 14 27 15 27 26 7 6 -12 18 -29 27 -37 10 -11 17
-41 20 -91 4 -64 2 -74 -11 -69 -12 5 -14 15 -9 39 7 38 -3 78 -17 70 -5 -4
-9 -14 -9 -24 0 -22 -65 -91 -86 -91 -8 0 -17 -7 -20 -15 -5 -11 -10 -13 -19
-5 -9 7 -15 7 -19 1 -4 -5 3 -12 14 -16 11 -3 20 -13 20 -22 0 -8 9 -17 20
-20 12 -3 30 -23 40 -44 22 -43 25 -53 10 -44 -5 3 -7 0 -4 -9 3 -8 1 -23 -5
-33 -9 -16 -11 -14 -11 12 -2 43 -9 98 -15 103 -8 9 -25 -49 -25 -86 0 -33 -5
-40 -40 -60 -22 -12 -47 -35 -57 -50 -9 -15 -25 -37 -36 -49 -18 -20 -19 -26
-7 -70 7 -26 17 -52 21 -57 5 -6 9 -25 9 -43 0 -26 -4 -33 -19 -33 -19 0 -31
-18 -31 -46 0 -9 3 -13 8 -11 8 6 11 -18 14 -123 2 -38 6 -70 9 -70 14 0 18
-109 5 -146 l-13 -39 -7 32 c-3 18 -9 46 -12 63 -5 26 -7 28 -25 17 -13 -8
-19 -20 -16 -34 2 -12 1 -20 -4 -18 -4 3 -7 35 -6 73 0 37 -4 76 -11 87 -11
19 -11 19 -12 -2 0 -13 -5 -23 -10 -23 -6 0 -15 -11 -20 -25 -5 -14 -16 -25
-25 -25 -12 0 -15 -16 -15 -88 0 -68 -4 -97 -20 -127 -24 -48 -25 -45 3 -46
12 0 17 -3 11 -5 -12 -5 -121 29 -156 47 -9 5 -18 19 -20 31 -2 17 -9 22 -23
20 -47 -9 -61 -51 -23 -70 13 -6 68 -23 123 -38 92 -24 106 -25 180 -15 44 6
134 13 200 17 123 6 253 28 269 44 5 5 6 20 2 33 -4 19 -19 29 -63 45 -32 12
-73 23 -91 26 -19 2 -35 6 -37 8 -13 15 -44 137 -49 193 -4 39 -12 106 -18
150 l-11 80 35 70 c76 153 92 200 80 245 -6 23 -6 42 -1 46 5 3 9 18 9 35 0
16 5 29 12 29 6 0 9 -3 6 -6 -3 -3 7 -19 23 -35 16 -16 29 -36 29 -43 0 -8 7
-19 15 -26 16 -14 19 -7 15 38 -1 19 3 22 33 22 20 0 49 10 71 25 20 14 41 25
46 25 6 0 10 7 10 16 0 13 3 14 15 4 8 -6 18 -9 23 -6 11 6 97 -75 106 -101 4
-10 14 -14 31 -11 13 3 26 0 28 -6 3 -8 13 -6 33 4 32 17 46 35 50 65 2 11 8
49 13 85 9 64 2 100 -20 100 -10 0 -39 24 -39 33 0 3 13 19 29 36 34 36 57
123 47 175 -8 37 -86 141 -106 141 -23 0 -59 -64 -66 -115 -5 -36 -11 -50 -25
-53 -13 -3 -19 -14 -19 -31 0 -40 -17 -31 -24 14 -3 22 -9 40 -12 40 -3 0 -49
-35 -102 -78 -53 -43 -102 -81 -108 -85 -12 -7 -101 149 -91 159 2 3 21 -28
42 -68 21 -40 39 -75 41 -77 3 -4 99 70 157 120 l39 34 -43 98 -43 98 -95 -93
c-53 -52 -75 -70 -50 -41 24 28 71 83 104 121 33 39 64 69 69 68 5 -1 29 -52
54 -114 25 -62 47 -111 49 -108 2 2 -17 55 -43 117 -44 108 -46 117 -40 181 7
82 14 101 34 93 12 -5 13 -3 2 10 -12 14 -18 12 -52 -22 l-39 -38 44 80 c24
44 63 116 87 160 192 355 333 611 340 619 5 4 18 -14 30 -42 12 -28 34 -77 49
-108 l27 -57 43 334 c24 184 46 349 48 367 3 17 2 32 -3 31 -5 0 -85 -23 -179
-50z m-894 -1296 c3 -150 -1 -277 -10 -326 -7 -42 -7 -42 -15 28 -6 59 -11 73
-33 91 l-26 21 33 122 c24 86 36 118 42 107 5 -9 9 -28 9 -43z m66 -277 c-4
-9 -13 -16 -21 -16 -12 0 -12 6 -3 36 10 33 12 35 20 16 5 -12 7 -28 4 -36z
m-115 37 c-7 -3 -18 -16 -23 -30 -5 -14 -12 -23 -16 -19 -11 10 19 56 36 55
11 0 12 -2 3 -6z m8 -69 c0 -21 -3 -24 -21 -19 -12 4 -19 3 -16 -2 3 -5 8 -27
10 -49 4 -30 1 -41 -9 -41 -8 0 -14 6 -14 14 0 7 -5 13 -11 13 -7 0 -9 10 -5
26 9 36 36 75 47 68 5 -3 9 0 9 5 0 6 2 11 5 11 3 0 5 -12 5 -26z m709 -76
c-18 -33 -24 -5 -7 33 11 25 14 27 16 10 2 -11 -2 -30 -9 -43z m-259 20 c0
-13 -9 -42 -20 -65 -15 -34 -24 -43 -44 -43 -46 0 -63 73 -26 110 12 12 33 20
55 20 30 0 35 -3 35 -22z m90 -178 c0 8 3 11 6 7 3 -3 -2 -19 -12 -36 -18 -31
-34 -40 -34 -20 0 6 -8 8 -19 4 -11 -3 -22 -1 -26 4 -3 7 0 8 10 5 11 -5 14
-2 9 10 -8 20 35 39 54 24 8 -7 12 -7 12 2z m92 -32 c-7 -7 -12 -8 -12 -2 0 6
3 14 7 17 3 4 9 5 12 2 2 -3 -1 -11 -7 -17z m24 -89 c0 -18 5 -34 12 -36 6 -3
12 2 12 10 0 8 7 20 15 27 14 11 14 9 0 -16 -20 -39 -19 -49 8 -68 19 -14 20
-16 3 -14 -24 4 -61 39 -82 80 -15 29 -15 30 0 25 10 -4 19 -1 22 8 9 23 12
18 10 -16z m4 -85 c0 -8 -4 -12 -10 -9 -5 3 -10 10 -10 16 0 5 5 9 10 9 6 0
10 -7 10 -16z m-3 -46 c-3 -8 -6 -5 -6 6 -1 11 2 17 5 13 3 -3 4 -12 1 -19z
m-602 -498 c8 -12 -5 -60 -16 -60 -5 0 -9 14 -9 31 0 17 -4 28 -10 24 -5 -3
-10 -1 -10 4 0 14 37 14 45 1z m-145 -290 c0 -12 -11 -31 -25 -44 -14 -13 -25
-29 -25 -36 0 -7 -3 -11 -6 -7 -9 8 6 88 16 82 4 -3 13 2 20 10 17 20 20 19
20 -5z"/>
<path d="M2320 2851 c0 -4 9 -18 19 -30 24 -27 94 -27 99 0 2 13 -4 16 -30 15
-18 -2 -37 0 -43 4 -19 13 -45 19 -45 11z"/>
<path d="M3155 2779 c-4 -6 -5 -12 -2 -15 2 -3 7 2 10 11 7 17 1 20 -8 4z"/>
<path d="M3130 2757 c0 -10 -4 -15 -10 -12 -5 3 -7 0 -4 -9 3 -8 12 -12 20 -9
16 6 17 13 4 33 -8 13 -10 12 -10 -3z"/>
<path d="M2827 2680 c-28 -60 -5 -109 26 -57 12 18 15 51 8 90 -3 17 -17 4
-34 -33z"/>
<path d="M2350 2661 c0 -5 5 -13 10 -16 6 -3 10 -2 10 4 0 5 -4 13 -10 16 -5
3 -10 2 -10 -4z"/>
<path d="M3040 2650 c0 -5 11 -9 25 -8 14 1 25 6 25 10 0 4 -11 8 -25 8 -14 0
-25 -4 -25 -10z"/>
<path d="M3163 2603 c-7 -3 -12 -17 -12 -31 1 -21 2 -23 6 -7 3 11 10 23 16
27 14 9 6 17 -10 11z"/>
<path d="M2204 2575 c-3 -8 -4 -20 -2 -27 3 -7 7 -1 10 15 6 29 1 36 -8 12z"/>
<path d="M3018 2554 c-12 -12 -10 -76 2 -69 6 4 17 1 25 -5 11 -9 15 -9 15 -1
0 6 -4 11 -8 11 -5 0 -13 16 -18 36 -5 20 -12 33 -16 28z"/>
<path d="M3132 2445 c0 -16 2 -22 5 -12 2 9 2 23 0 30 -3 6 -5 -1 -5 -18z"/>
<path d="M2766 2442 c-9 -15 7 -92 19 -92 18 0 29 81 13 92 -17 10 -26 10 -32
0z"/>
<path d="M2485 2370 c-4 -39 -5 -73 -2 -76 3 -3 8 27 12 66 4 39 5 73 2 76 -3
3 -8 -27 -12 -66z"/>
<path d="M3050 2411 c0 -40 -19 -49 -41 -20 -14 18 -19 20 -19 8 0 -9 -7 -19
-15 -23 -9 -3 -15 -18 -15 -35 0 -16 -6 -31 -12 -34 -8 -2 -9 -8 -4 -13 5 -5
11 -4 13 4 6 15 30 16 35 0 6 -17 28 0 28 21 0 10 9 28 20 41 17 20 29 80 15
80 -3 0 -5 -13 -5 -29z"/>
<path d="M2647 2407 c-11 -29 -9 -53 4 -40 6 6 9 21 7 34 -3 21 -4 22 -11 6z"/>
<path d="M2695 2370 c-4 -14 -16 -31 -26 -38 -14 -9 -19 -27 -20 -60 -1 -26
-3 -39 -6 -29 -5 18 -48 24 -58 7 -3 -5 -16 -15 -28 -21 -18 -9 -20 -9 -9 2 6
7 11 27 11 44 -1 28 -2 29 -8 5 -3 -14 -14 -36 -24 -50 -15 -21 -19 -23 -28
-10 -8 11 -8 9 -2 -10 10 -34 6 -137 -7 -158 -9 -13 -10 -8 -5 23 4 22 9 50
12 63 8 33 -12 27 -36 -12 -23 -37 -27 -86 -9 -104 6 -6 11 -32 9 -58 -1 -25
2 -51 7 -57 5 -7 12 -38 14 -70 4 -46 10 -63 34 -88 23 -24 36 -30 62 -27 37
5 37 6 16 -33 -8 -17 -13 -38 -9 -47 4 -11 20 8 52 62 25 42 47 75 50 73 2 -3
-19 -46 -46 -96 -27 -50 -46 -89 -41 -86 5 3 10 -3 12 -12 3 -19 10 -14 43 32
13 17 13 14 0 -24 -8 -24 -13 -46 -10 -49 2 -3 7 4 11 14 4 10 18 46 31 79 54
134 82 215 74 215 -5 0 -14 -15 -20 -33 -7 -19 -18 -34 -26 -34 -20 0 -19 12
3 34 29 30 45 70 38 97 -6 26 -28 37 -25 14 3 -28 -1 -71 -8 -65 -3 4 -5 34
-4 67 1 36 -3 60 -9 60 -5 0 -10 -6 -10 -13 0 -7 -9 -13 -20 -13 -11 0 -20 4
-20 8 0 4 4 8 10 8 5 0 9 16 8 35 -1 19 2 38 5 42 4 3 7 -1 7 -11 0 -9 4 -15
9 -12 5 4 12 0 15 -6 4 -7 4 2 1 21 -3 18 -5 61 -6 95 0 43 -3 55 -9 41 -5
-11 -9 -33 -9 -48 -1 -18 -5 -26 -12 -21 -18 11 -2 116 20 134 12 10 21 34 24
70 5 45 4 50 -4 28 -6 -16 -15 -28 -20 -28 -6 0 -5 9 1 21 6 11 10 28 8 37 -3
13 -6 11 -13 -8z m-7 -476 c-4 -23 -24 -29 -32 -9 -7 19 15 47 27 35 5 -4 7
-16 5 -26z"/>
<path d="M2511 2364 c0 -11 3 -14 6 -6 3 7 2 16 -1 19 -3 4 -6 -2 -5 -13z"/>
<path d="M2792 2285 c0 -16 2 -22 5 -12 2 9 2 23 0 30 -3 6 -5 -1 -5 -18z"/>
<path d="M1661 2224 c0 -11 3 -14 6 -6 3 7 2 16 -1 19 -3 4 -6 -2 -5 -13z"/>
<path d="M3028 2225 c-8 -8 3 -55 13 -55 5 0 6 12 3 28 -8 32 -9 34 -16 27z"/>
<path d="M1651 2184 c0 -11 3 -14 6 -6 3 7 2 16 -1 19 -3 4 -6 -2 -5 -13z"/>
<path d="M1641 2144 c0 -11 3 -14 6 -6 3 7 2 16 -1 19 -3 4 -6 -2 -5 -13z"/>
<path d="M1611 2034 c0 -11 3 -14 6 -6 3 7 2 16 -1 19 -3 4 -6 -2 -5 -13z"/>
<path d="M2320 2021 c0 -5 -9 -13 -21 -16 -17 -6 -20 -13 -17 -36 3 -17 1 -32
-4 -35 -12 -8 -10 -192 3 -199 6 -4 14 -17 18 -29 5 -12 6 13 3 56 -6 92 3
145 23 145 12 0 15 -14 15 -58 0 -43 4 -58 16 -63 9 -4 19 -4 22 -1 3 3 1 5
-4 5 -4 0 2 7 14 16 12 8 19 20 16 26 -4 6 1 8 14 4 27 -9 40 27 18 49 -14 14
-16 13 -22 -10 -8 -31 -24 -23 -24 13 0 21 -2 24 -10 12 -6 -9 -10 -10 -10 -3
0 6 -11 24 -24 40 -17 20 -22 34 -15 44 12 19 11 49 -1 49 -5 0 -10 -4 -10 -9z"/>
<path d="M2785 2001 c-3 -7 -5 -24 -4 -39 1 -15 -1 -35 -6 -44 -4 -10 -5 -23
-3 -30 2 -6 14 9 27 35 20 42 21 49 8 67 -10 14 -17 18 -22 11z"/>
<path d="M1955 1991 c-3 -5 -1 -12 4 -15 5 -3 11 1 15 9 6 16 -9 21 -19 6z"/>
<path d="M1581 1924 c0 -11 3 -14 6 -6 3 7 2 16 -1 19 -3 4 -6 -2 -5 -13z"/>
<path d="M2805 1920 c-7 -11 27 -160 36 -160 4 0 12 7 19 15 10 12 10 15 -4
15 -17 0 -21 24 -17 91 2 36 -20 61 -34 39z"/>
<path d="M1571 1884 c0 -11 3 -14 6 -6 3 7 2 16 -1 19 -3 4 -6 -2 -5 -13z"/>
<path d="M3170 1856 c0 -9 5 -16 10 -16 6 0 10 4 10 9 0 6 -4 13 -10 16 -5 3
-10 -1 -10 -9z"/>
<path d="M1556 1834 c-4 -14 -5 -28 -3 -31 3 -2 8 8 11 23 4 14 5 28 3 31 -3
2 -8 -8 -11 -23z"/>
<path d="M3086 1815 c-26 -20 -14 -50 13 -33 22 14 35 48 18 48 -7 0 -20 -7
-31 -15z"/>
<path d="M1541 1774 c0 -11 3 -14 6 -6 3 7 2 16 -1 19 -3 4 -6 -2 -5 -13z"/>
<path d="M2434 1755 c-9 -22 5 -67 19 -62 7 2 10 11 8 18 -1 8 -4 24 -5 36 -1
26 -14 30 -22 8z"/>
<path d="M2871 1730 c-51 -23 -124 -86 -128 -110 -3 -23 -100 -216 -125 -251
-12 -16 -29 -29 -37 -29 -26 0 -44 -17 -38 -34 4 -9 6 -19 6 -21 0 -3 8 -13
17 -22 12 -12 15 -29 12 -65 -4 -39 -3 -45 7 -31 11 14 14 12 24 -19 12 -37
41 -71 41 -49 0 20 40 -12 41 -34 1 -19 2 -19 6 -1 3 12 -4 27 -19 40 -26 22
-27 46 -2 46 8 0 18 -9 22 -21 8 -19 9 -19 24 -2 31 34 45 166 24 217 -16 39
-16 40 10 67 25 26 25 28 7 37 -15 8 -26 4 -56 -24 -20 -19 -37 -39 -37 -44 0
-6 -4 -10 -10 -10 -5 0 -10 2 -10 5 0 10 95 190 103 193 4 2 7 10 7 18 0 8 7
14 15 14 8 0 15 5 15 11 0 5 5 7 10 4 6 -3 13 2 17 12 9 25 53 64 64 58 5 -4
9 1 9 9 0 9 5 16 10 16 6 0 10 -7 10 -15 0 -20 16 -19 24 1 3 8 10 12 16 9 5
-3 10 3 10 13 0 17 -18 32 -38 32 -4 0 -27 -9 -51 -20z m-181 -407 c0 -5 -4
-15 -10 -23 -11 -18 -25 -7 -17 15 6 15 27 21 27 8z"/>
<path d="M3010 1727 c0 -31 25 -87 40 -87 6 0 10 8 9 18 -1 21 -17 61 -19 47
-1 -5 -8 4 -15 20 l-14 30 -1 -28z"/>
<path d="M3150 1692 c0 -19 40 -54 57 -50 9 2 18 9 21 17 3 8 0 11 -7 7 -6 -4
-11 -2 -11 4 0 6 -5 8 -11 5 -5 -4 -19 1 -30 11 -11 10 -19 12 -19 6z"/>
<path d="M2858 1616 c2 -21 0 -41 -5 -45 -11 -7 -44 -103 -33 -96 4 2 12 -7
18 -20 23 -51 55 -17 50 52 -2 37 2 57 20 85 13 21 22 46 19 55 -3 14 -6 12
-15 -9 -12 -29 -26 -40 -15 -12 5 14 3 15 -15 5 -17 -9 -21 -8 -25 7 -2 9 -2
0 1 -22z"/>
<path d="M1501 1624 c0 -11 3 -14 6 -6 3 7 2 16 -1 19 -3 4 -6 -2 -5 -13z"/>
<path d="M1491 1584 c0 -11 3 -14 6 -6 3 7 2 16 -1 19 -3 4 -6 -2 -5 -13z"/>
<path d="M2554 1556 c-11 -28 1 -81 18 -84 21 -4 33 35 24 73 -7 27 -33 34
-42 11z"/>
<path d="M1461 1474 c0 -11 3 -14 6 -6 3 7 2 16 -1 19 -3 4 -6 -2 -5 -13z"/>
<path d="M1131 1473 c-1 -6 -4 -20 -7 -30 -5 -17 -5 -17 6 0 6 10 9 23 6 30
-3 9 -5 9 -5 0z"/>
<path d="M1760 1441 c0 -6 3 -10 8 -8 8 2 12 -6 12 -25 0 -9 -4 -8 -10 2 -17
26 -30 -8 -16 -44 21 -59 32 -72 50 -57 8 7 20 28 27 48 10 31 9 39 -8 62 -20
26 -63 41 -63 22z"/>
<path d="M1111 1404 c0 -11 3 -14 6 -6 3 7 2 16 -1 19 -3 4 -6 -2 -5 -13z"/>
<path d="M1431 1364 c0 -11 3 -14 6 -6 3 7 2 16 -1 19 -3 4 -6 -2 -5 -13z"/>
<path d="M1066 1264 c-10 -31 -16 -58 -14 -60 3 -2 12 21 22 52 10 31 16 58
14 60 -3 2 -12 -21 -22 -52z"/>
<path d="M1411 1294 c0 -11 3 -14 6 -6 3 7 2 16 -1 19 -3 4 -6 -2 -5 -13z"/>
<path d="M1826 1294 c-3 -9 -6 -23 -6 -32 1 -15 3 -14 15 2 17 22 20 46 6 46
-5 0 -12 -7 -15 -16z"/>
<path d="M1401 1254 c0 -11 3 -14 6 -6 3 7 2 16 -1 19 -3 4 -6 -2 -5 -13z"/>
<path d="M1026 1134 c-4 -14 -5 -28 -3 -31 3 -2 8 8 11 23 4 14 5 28 3 31 -3
2 -8 -8 -11 -23z"/>
<path d="M2568 1102 c9 -10 19 -17 21 -16 6 5 -20 34 -30 34 -5 0 -1 -8 9 -18z"/>
<path d="M2570 1045 c-8 -9 -8 -15 -2 -15 12 0 26 19 19 26 -2 2 -10 -2 -17
-11z"/>
<path d="M981 984 c0 -11 3 -14 6 -6 3 7 2 16 -1 19 -3 4 -6 -2 -5 -13z"/>
<path d="M671 943 c-1 -6 -4 -20 -7 -30 -5 -17 -5 -17 6 0 6 10 9 23 6 30 -3
9 -5 9 -5 0z"/>
<path d="M641 853 c-1 -6 -4 -20 -7 -30 -5 -17 -5 -17 6 0 6 10 9 23 6 30 -3
9 -5 9 -5 0z"/>
<path d="M546 574 c-25 -76 -44 -139 -42 -141 2 -2 25 58 50 133 25 76 44 139
42 141 -2 2 -25 -58 -50 -133z"/>
<path d="M1481 424 c0 -124 4 -222 8 -219 9 10 7 445 -2 445 -4 0 -7 -102 -6
-226z"/>
<path d="M1550 635 c0 -8 4 -15 10 -15 5 0 7 7 4 15 -4 8 -8 15 -10 15 -2 0
-4 -7 -4 -15z"/>
<path d="M1563 553 c-7 -3 -13 -12 -12 -21 0 -10 3 -12 5 -5 3 7 12 9 20 6 8
-3 14 0 14 5 0 14 -12 20 -27 15z"/>
<path d="M491 413 c-1 -6 -4 -20 -7 -30 -5 -17 -5 -17 6 0 6 10 9 23 6 30 -3
9 -5 9 -5 0z"/>
</g>
</svg>
